<svg xmlns="http://www.w3.org/2000/svg" viewBox="0 0 1000 1500">
  <defs>
    <style>
      .startend { fill: #ffe599; stroke: #b8860b; stroke-width: 2; }
      .process { fill: #d9ead3; stroke: #38761d; stroke-width: 2; }
      .decision { fill: #f4cccc; stroke: #990000; stroke-width: 2; }
      .io { fill: #cfe2f3; stroke: #1155cc; stroke-width: 2; }
      .arrow { stroke: #222; stroke-width: 2; fill: none; marker-end: url(#arrowhead); }
      .label { font-family: Arial, sans-serif; font-size: 15px; text-anchor: middle; }
      .title { font-family: Arial, sans-serif; font-size: 28px; font-weight: bold; text-anchor: middle; }
      .subtitle { font-family: Arial, sans-serif; font-size: 18px; font-style: italic; text-anchor: middle; }
    </style>
    <marker id="arrowhead" markerWidth="10" markerHeight="7" refX="9" refY="3.5" orient="auto">
      <polygon points="0 0, 10 3.5, 0 7" fill="#222"/>
    </marker>
  </defs>

  <!-- Title -->
  <text x="500" y="50" class="title">Tic Tac Toe - Program Flow</text>
  <text x="500" y="80" class="subtitle">Professional Python GUI Application</text>

  <!-- Start -->
  <rect x="420" y="100" width="160" height="50" rx="25" class="startend"/>
  <text x="500" y="130" class="label">Start</text>

  <!-- Initialize Application -->
  <rect x="370" y="180" width="260" height="50" class="process"/>
  <text x="500" y="210" class="label">Initialize Tkinter &amp; BoardGUI</text>

  <!-- Mode Selection -->
  <rect x="370" y="260" width="260" height="50" class="io"/>
  <text x="500" y="290" class="label">Show Mode Selection</text>

  <!-- Decision: Mode? -->
  <polygon points="500,330 550,380 500,430 450,380" class="decision"/>
  <text x="500" y="375" class="label">Player vs Player</text>
  <text x="500" y="395" class="label">or</text>
  <text x="500" y="415" class="label">Player vs AI?</text>

  <!-- PvP Process -->
  <rect x="180" y="470" width="220" height="50" class="process"/>
  <text x="290" y="500" class="label">Create 2 Human Players</text>

  <!-- PvAI Process -->
  <rect x="600" y="470" width="220" height="50" class="process"/>
  <text x="710" y="500" class="label">Create Human &amp; AI Player</text>

  <!-- AI Difficulty Selection -->
  <rect x="600" y="550" width="220" height="50" class="io"/>
  <text x="710" y="580" class="label">Select AI Difficulty</text>

  <!-- Decision: Difficulty? -->
  <polygon points="710,630 760,680 710,730 660,680" class="decision"/>
  <text x="710" y="675" class="label">Easy or Hard?</text>

  <!-- Easy AI -->
  <rect x="540" y="770" width="120" height="50" class="process"/>
  <text x="600" y="800" class="label">Easy AI</text>

  <!-- Hard AI -->
  <rect x="760" y="770" width="120" height="50" class="process"/>
  <text x="820" y="800" class="label">Hard AI</text>

  <!-- Game Init -->
  <rect x="370" y="870" width="260" height="50" class="process"/>
  <text x="500" y="900" class="label">Initialize Game (TicTacToe)</text>

  <!-- Game Loop -->
  <rect x="370" y="950" width="260" height="50" class="io"/>
  <text x="500" y="980" class="label">Game Loop: Player/AI Moves</text>

  <!-- Decision: Game Over? -->
  <polygon points="500,1040 550,1090 500,1140 450,1090" class="decision"/>
  <text x="500" y="1090" class="label">Game Over?</text>

  <!-- End Game Dialog -->
  <rect x="370" y="1180" width="260" height="50" class="io"/>
  <text x="500" y="1210" class="label">Show End Game Dialog</text>

  <!-- Decision: Next Action? -->
  <polygon points="500,1270 550,1320 500,1370 450,1320" class="decision"/>
  <text x="500" y="1310" class="label">Play Again?</text>

  <!-- End -->
  <rect x="420" y="1420" width="160" height="50" rx="25" class="startend"/>
  <text x="500" y="1450" class="label">Exit</text>

  <!-- Arrows -->
  <line x1="500" y1="150" x2="500" y2="180" class="arrow"/>
  <line x1="500" y1="230" x2="500" y2="260" class="arrow"/>
  <line x1="500" y1="310" x2="500" y2="330" class="arrow"/>
  <line x1="450" y1="430" x2="290" y2="470" class="arrow"/>
  <line x1="550" y1="430" x2="710" y2="470" class="arrow"/>
  <line x1="710" y1="520" x2="710" y2="550" class="arrow"/>
  <line x1="710" y1="600" x2="710" y2="630" class="arrow"/>
  <line x1="660" y1="680" x2="600" y2="770" class="arrow"/>
  <line x1="760" y1="680" x2="820" y2="770" class="arrow"/>
  <line x1="600" y1="820" x2="500" y2="870" class="arrow"/>
  <line x1="820" y1="820" x2="630" y2="870" class="arrow"/>
  <line x1="290" y1="520" x2="500" y2="870" class="arrow"/>
  <line x1="500" y1="920" x2="500" y2="950" class="arrow"/>
  <line x1="500" y1="1000" x2="500" y2="1040" class="arrow"/>
  <line x1="500" y1="1140" x2="500" y2="1180" class="arrow"/>
  <line x1="500" y1="1230" x2="500" y2="1270" class="arrow"/>
  <line x1="500" y1="1370" x2="500" y2="1420" class="arrow"/>
</svg>